<svg xmlns="http://www.w3.org/2000/svg" width="100" height="102" fill="none"><g fill-rule="evenodd" clip-rule="evenodd"><path fill="#FCFCFC" d="M48.3 36.358c0 .056-.281.1-.644.1-.354 0-.672.045-.706.1-.034.055-.239.1-.456.1-.216 0-.394.045-.394.1 0 .055-.135.1-.3.1-.164 0-.3.045-.3.1 0 .055-.135.1-.3.1-.164 0-.3.045-.3.1 0 .055-.134.1-.3.1-.164 0-.3.045-.3.1 0 .055-.09.1-.2.1-.11 0-.2.045-.2.1 0 .055-.09.1-.2.1-.11 0-.2.045-.2.1 0 .055-.09.1-.2.1-.11 0-.2.045-.2.1 0 .055-.09.1-.2.1-.11 0-.2.045-.2.1 0 .055-.08.1-.177.1-.098 0-.243.09-.322.2-.08.11-.214.2-.3.2s-.22.09-.3.2c-.08.11-.205.2-.28.2-.075 0-.308.18-.52.4-.211.22-.43.4-.486.4-.134 0-1.414 1.28-1.414 1.413 0 .056-.18.275-.4.486-.22.212-.4.446-.4.52 0 .075-.09.2-.2.28-.11.08-.2.214-.2.3s-.09.22-.2.3c-.11.08-.2.224-.2.322s-.044.178-.1.178c-.054 0-.1.09-.1.2 0 .11-.044.2-.1.2-.054 0-.1.09-.1.2 0 .11-.045.2-.1.2-.055 0-.1.09-.1.2 0 .11-.044.2-.1.2-.054 0-.1.09-.1.2 0 .11-.044.2-.1.2-.054 0-.1.135-.1.3 0 .165-.044.3-.1.3-.054 0-.1.135-.1.3 0 .165-.044.3-.1.3-.054 0-.1.135-.1.3 0 .165-.044.3-.1.3-.054 0-.1.177-.1.393 0 .217-.044.422-.1.456-.054.034-.1.352-.1.706 0 .363-.043.644-.1.644-.062 0-.1.633-.1 1.7s.038 1.7.1 1.7c.057 0 .1.281.1.644 0 .354.046.672.1.706.056.034.1.239.1.456 0 .216.046.394.1.394.056 0 .1.135.1.3 0 .165.046.3.1.3.056 0 .1.135.1.3 0 .164.046.3.1.3.056 0 .1.135.1.3 0 .164.046.3.1.3.056 0 .1.09.1.2 0 .11.046.2.1.2.056 0 .1.09.1.2 0 .11.045.2.1.2.055 0 .1.09.1.2 0 .11.045.2.1.2.056 0 .1.09.1.2 0 .11.046.2.1.2.056 0 .1.08.1.177 0 .098.09.243.2.322.11.08.2.214.2.3s.09.22.2.3c.11.08.2.205.2.28 0 .075.18.309.4.52.22.212.4.43.4.486 0 .134 1.28 1.414 1.414 1.414.056 0 .275.18.486.4.212.22.445.4.52.4.075 0 .2.09.28.2.08.11.214.2.3.2s.22.09.3.2c.08.11.224.2.322.2s.178.045.178.1c0 .055.09.1.2.1.11 0 .2.045.2.1 0 .055.09.1.2.1.11 0 .2.045.2.1 0 .055.09.1.2.1.11 0 .2.045.2.1 0 .054.09.1.2.1.11 0 .2.044.2.1 0 .054.135.1.3.1.165 0 .3.044.3.1 0 .055.135.1.3.1.164 0 .3.044.3.1 0 .055.135.1.3.1.164 0 .3.044.3.1 0 .054.177.1.393.1.217 0 .422.044.456.1.034.054.352.1.706.1.363 0 .644.043.644.1 0 .062.633.1 1.7.1s1.7-.038 1.7-.1c0-.057.281-.1.644-.1.354 0 .672-.046.706-.1.034-.056.239-.1.456-.1.216 0 .394-.046.394-.1 0-.055.135-.1.3-.1.164 0 .3-.046.3-.1 0-.055.135-.1.3-.1.164 0 .3-.046.3-.1 0-.055.134-.1.3-.1.164 0 .3-.046.3-.1 0-.056.09-.1.2-.1.11 0 .2-.046.2-.1 0-.055.09-.1.2-.1.11 0 .2-.045.2-.1 0-.055.09-.1.2-.1.11 0 .2-.045.2-.1 0-.055.09-.1.2-.1.11 0 .2-.045.2-.1 0-.055.08-.1.177-.1.098 0 .243-.09.322-.2.08-.11.214-.2.3-.2s.22-.09.3-.2c.08-.11.205-.2.28-.2.075 0 .308-.18.52-.4.211-.22.43-.4.486-.4.134 0 1.414-1.28 1.414-1.413 0-.057.18-.276.4-.487.22-.211.4-.445.4-.52 0-.075.09-.2.2-.28.11-.08.2-.214.2-.3s.09-.22.2-.3c.11-.08.2-.224.2-.322s.044-.178.1-.178c.054 0 .1-.09.1-.2 0-.11.044-.2.1-.2.054 0 .1-.09.1-.2 0-.11.045-.2.1-.2.055 0 .1-.09.1-.2 0-.11.044-.2.1-.2.054 0 .1-.09.1-.2 0-.11.044-.2.1-.2.054 0 .1-.135.1-.3 0-.164.044-.3.1-.3.054 0 .1-.135.1-.3 0-.164.044-.3.1-.3.054 0 .1-.134.1-.3 0-.164.044-.3.1-.3.054 0 .1-.177.1-.393 0-.217.044-.422.1-.456.054-.034.1-.352.1-.706 0-.363.043-.644.1-.644.062 0 .1-.633.1-1.7s-.038-1.7-.1-1.7c-.057 0-.1-.28-.1-.644 0-.354-.046-.672-.1-.706-.056-.034-.1-.239-.1-.456 0-.216-.046-.394-.1-.394-.056 0-.1-.134-.1-.3 0-.164-.046-.3-.1-.3-.056 0-.1-.134-.1-.3 0-.164-.046-.3-.1-.3-.056 0-.1-.134-.1-.3 0-.164-.046-.3-.1-.3-.056 0-.1-.09-.1-.2 0-.11-.046-.2-.1-.2-.056 0-.1-.09-.1-.2 0-.11-.045-.2-.1-.2-.055 0-.1-.09-.1-.2 0-.11-.045-.2-.1-.2-.056 0-.1-.09-.1-.2 0-.11-.046-.2-.1-.2-.056 0-.1-.08-.1-.177 0-.098-.09-.243-.2-.322-.11-.08-.2-.214-.2-.3s-.09-.22-.2-.3c-.11-.08-.2-.205-.2-.28 0-.074-.18-.308-.4-.52-.22-.211-.4-.43-.4-.486 0-.134-1.28-1.414-1.414-1.414-.056 0-.275-.18-.486-.4-.212-.22-.445-.4-.52-.4-.075 0-.2-.09-.28-.2-.08-.11-.214-.2-.3-.2s-.22-.09-.3-.2c-.08-.11-.224-.2-.322-.2s-.178-.044-.178-.1c0-.054-.09-.1-.2-.1-.11 0-.2-.044-.2-.1 0-.054-.09-.1-.2-.1-.11 0-.2-.044-.2-.1 0-.054-.09-.1-.2-.1-.11 0-.2-.044-.2-.1 0-.054-.09-.1-.2-.1-.11 0-.2-.044-.2-.1 0-.054-.135-.1-.3-.1-.165 0-.3-.044-.3-.1 0-.054-.135-.1-.3-.1-.164 0-.3-.044-.3-.1 0-.054-.135-.1-.3-.1-.164 0-.3-.044-.3-.1 0-.054-.177-.1-.393-.1-.217 0-.422-.044-.456-.1-.034-.054-.352-.1-.706-.1-.363 0-.644-.043-.644-.1 0-.062-.633-.1-1.7-.1s-1.7.038-1.7.1zM.068 55.63c.037.976.106 1.79.153 1.808.046.018.085.39.085.825 0 .46.041.791.1.791.056 0 .1.281.1.644 0 .354.045.672.1.706.055.034.1.284.1.556 0 .272.045.494.1.494.055 0 .1.225.1.5s.045.5.1.5c.055 0 .1.2.1.444s.045.472.1.506c.055.034.1.214.1.4 0 .186.045.366.1.4.055.034.1.213.1.4 0 .185.045.365.1.4.055.034.1.194.1.355 0 .162.045.294.1.294.055 0 .1.155.1.344 0 .19.045.372.1.406.055.034.1.195.1.356 0 .162.045.294.1.294.054 0 .1.135.1.3 0 .165.044.3.1.3.054 0 .1.135.1.3 0 .165.044.3.1.3.054 0 .1.135.1.3 0 .165.044.3.1.3.054 0 .1.11.1.244s.044.272.1.306c.054.034.1.15.1.256 0 .107.044.194.1.194.054 0 .1.135.1.3 0 .165.044.3.1.3.054 0 .1.09.1.2 0 .11.044.2.1.2.054 0 .1.135.1.3 0 .165.044.3.1.3.054 0 .1.09.1.2 0 .11.044.2.1.2.054 0 .1.09.1.2 0 .11.044.2.1.2.054 0 .1.11.1.244s.044.272.1.306c.054.034.1.149.1.255 0 .107.044.195.1.195.054 0 .1.09.1.2 0 .11.044.2.1.2.054 0 .1.09.1.2 0 .11.044.2.1.2.054 0 .1.09.1.2 0 .11.044.2.1.2.054 0 .1.09.1.2 0 .11.044.2.1.2.054 0 .1.09.1.2 0 .11.044.2.1.2.054 0 .1.09.1.2 0 .11.044.2.1.2.054 0 .1.08.1.177 0 .098.09.243.2.322.109.08.199.224.199.322s.045.178.1.178c.055 0 .1.09.1.2 0 .11.045.2.1.2.055 0 .1.08.1.178 0 .098.09.243.2.322.11.08.2.224.2.322s.045.178.1.178c.055 0 .1.08.1.178 0 .098.09.243.2.322.11.08.2.214.2.3s.09.22.2.3c.11.08.2.214.2.3 0 .085.09.22.2.3.11.079.2.214.2.3 0 .085.09.22.2.3.11.079.2.214.2.3 0 .085.09.22.2.3.11.079.2.195.2.257s.135.254.3.427c.165.172.3.364.3.424 0 .061.135.237.3.391.165.155.3.322.3.373 0 .05.224.333.5.627.274.295.5.575.5.624 0 .048.27.352.6.676.33.324.6.636.6.693 0 .135 3.671 3.807 3.806 3.807.057 0 .369.27.693.6.324.33.628.6.676.6.049 0 .33.225.624.5s.576.5.627.5c.05 0 .218.134.372.3.155.164.33.3.392.3.06 0 .251.134.424.3.173.164.365.3.427.3s.178.09.257.2c.08.11.215.2.3.2.086 0 .221.09.3.2.08.11.214.2.3.2s.221.09.3.2c.08.11.214.2.3.2s.22.09.3.2c.08.11.214.2.3.2s.22.09.3.2c.08.11.224.2.322.2s.178.044.178.099c0 .055.08.1.178.1.098 0 .243.09.322.2.08.11.224.2.322.2s.178.045.178.1c0 .055.09.1.2.1.11 0 .2.045.2.1 0 .055.08.1.178.1.098 0 .242.09.322.2.079.11.224.2.322.2s.178.045.178.1c0 .055.09.1.2.1.11 0 .2.045.2.1 0 .055.09.1.2.1.11 0 .2.045.2.1 0 .055.09.1.2.1.11 0 .2.045.2.1 0 .055.09.1.2.1.11 0 .2.045.2.1 0 .055.09.1.2.1.11 0 .2.045.2.1 0 .055.09.1.2.1.11 0 .2.045.2.1 0 .055.087.1.193.1.107 0 .222.045.256.1.034.055.172.1.306.1.135 0 .244.045.244.1 0 .055.09.1.2.1.11 0 .2.045.2.1 0 .055.09.1.2.1.11 0 .2.045.2.1 0 .055.135.1.3.1.165 0 .3.045.3.1 0 .055.09.1.2.1.11 0 .2.045.2.1 0 .055.135.1.3.1.165 0 .3.045.3.1 0 .055.087.1.194.1.107 0 .222.045.256.1.034.055.172.1.306.1s.244.044.244.1c0 .055.135.1.3.1.165 0 .3.044.3.1 0 .055.135.1.3.1.165 0 .3.045.3.1 0 .055.135.1.3.1.165 0 .3.044.3.1 0 .054.132.1.294.1.161 0 .322.044.356.1.034.054.216.099.406.099.189 0 .344.045.344.1 0 .055.132.1.294.1.161 0 .322.045.356.1.034.055.214.1.4.1.185 0 .365.045.4.1.033.055.213.1.4.1.185 0 .365.045.4.1.033.055.261.1.505.1s.444.045.444.1c0 .055.225.1.5.1s.5.045.5.1c0 .055.222.1.494.1s.522.045.556.1c.034.055.352.1.706.1.363 0 .644.044.644.1 0 .059.33.1.791.1.545 0 .805.039.834.125.06.183 10.887.183 10.948 0 .03-.086.29-.125.834-.125.46 0 .791-.041.791-.1 0-.056.281-.1.644-.1.354 0 .672-.045.706-.1.034-.055.284-.1.556-.1.272 0 .494-.045.494-.1 0-.055.225-.1.5-.1s.5-.045.5-.1c0-.055.2-.1.444-.1s.472-.045.506-.1c.034-.055.214-.1.4-.1.186 0 .366-.045.4-.1.034-.055.214-.1.4-.1.185 0 .365-.045.4-.1.034-.055.194-.1.355-.1.162 0 .294-.045.294-.1 0-.055.155-.1.344-.1.19 0 .372-.045.406-.1.034-.055.195-.1.356-.1.162 0 .294-.044.294-.1 0-.055.135-.1.3-.1.165 0 .3-.044.3-.1 0-.054.135-.1.3-.1.165 0 .3-.044.3-.1 0-.054.135-.1.3-.1.165 0 .3-.044.3-.1 0-.055.11-.1.244-.1s.272-.044.306-.1c.034-.054.15-.1.256-.1.107 0 .194-.044.194-.1 0-.054.135-.1.3-.1.165 0 .3-.044.3-.1 0-.054.09-.1.2-.1.11 0 .2-.044.2-.1 0-.054.135-.1.3-.1.165 0 .3-.044.3-.1 0-.054.09-.1.2-.1.11 0 .2-.044.2-.1 0-.054.09-.1.2-.1.11 0 .2-.044.2-.1 0-.054.11-.1.244-.1s.272-.044.306-.1c.034-.054.149-.1.256-.1.106 0 .194-.044.194-.1 0-.054.09-.1.2-.1.11 0 .2-.044.2-.1 0-.054.09-.1.2-.1.11 0 .2-.044.2-.1 0-.054.09-.1.2-.1.11 0 .2-.044.2-.1 0-.054.09-.1.2-.1.11 0 .2-.044.2-.1 0-.054.09-.1.2-.1.11 0 .2-.044.2-.1 0-.054.09-.1.2-.1.11 0 .2-.044.2-.1 0-.054.08-.1.177-.1.098 0 .243-.09.322-.2.08-.11.224-.2.322-.2s.178-.044.178-.099c0-.055.09-.1.2-.1.11 0 .2-.045.2-.1 0-.055.08-.1.178-.1.098 0 .243-.09.322-.2.08-.11.224-.2.322-.2s.178-.045.178-.1c0-.055.08-.1.178-.1.098 0 .243-.09.322-.2.08-.11.214-.2.3-.2s.22-.09.3-.2c.08-.11.214-.2.3-.2s.22-.09.3-.2c.079-.11.214-.2.3-.2s.22-.09.3-.2c.079-.11.214-.2.3-.2.085 0 .22-.09.3-.2.079-.11.195-.2.257-.2s.254-.135.427-.3c.173-.165.364-.3.425-.3.06 0 .236-.135.39-.3.155-.165.322-.3.373-.3.05 0 .333-.224.627-.5.295-.274.575-.5.624-.5.048 0 .352-.27.676-.6.324-.33.636-.6.693-.6.135 0 3.807-3.671 3.807-3.806 0-.057.27-.369.6-.693.33-.324.6-.628.6-.676 0-.049.225-.33.5-.624s.5-.576.5-.627c0-.05.134-.218.3-.373.164-.154.3-.33.3-.39 0-.061.134-.252.3-.425.164-.173.3-.365.3-.427s.09-.178.2-.257c.11-.08.2-.215.2-.3 0-.086.09-.221.2-.3.11-.08.2-.215.2-.3 0-.086.09-.221.2-.3.11-.08.2-.215.2-.3 0-.086.09-.22.2-.3.11-.08.2-.214.2-.3s.09-.22.2-.3c.11-.08.2-.224.2-.322s.044-.178.1-.178c.054 0 .1-.08.1-.178 0-.098.09-.243.199-.322.11-.08.2-.224.2-.322s.045-.178.1-.178c.055 0 .1-.09.1-.2 0-.11.045-.2.1-.2.055 0 .1-.08.1-.178 0-.098.09-.243.2-.322.11-.08.2-.224.2-.322s.045-.178.1-.178c.055 0 .1-.09.1-.2 0-.11.045-.2.1-.2.055 0 .1-.09.1-.2 0-.11.045-.2.1-.2.055 0 .1-.09.1-.2 0-.11.045-.2.1-.2.055 0 .1-.09.1-.2 0-.11.045-.2.1-.2.055 0 .1-.09.1-.2 0-.11.045-.2.1-.2.055 0 .1-.09.1-.2 0-.11.045-.2.1-.2.055 0 .1-.087.1-.194 0-.106.045-.221.1-.255.055-.034.1-.172.1-.306 0-.135.045-.244.1-.244.055 0 .1-.09.1-.2 0-.11.045-.2.1-.2.055 0 .1-.09.1-.2 0-.11.045-.2.1-.2.055 0 .1-.135.1-.3 0-.165.045-.3.1-.3.055 0 .1-.09.1-.2 0-.11.045-.2.1-.2.055 0 .1-.135.1-.3 0-.165.045-.3.1-.3.055 0 .1-.087.1-.194 0-.107.045-.222.1-.256.055-.034.1-.172.1-.306s.045-.244.1-.244c.055 0 .1-.135.1-.3 0-.165.045-.3.1-.3.055 0 .1-.135.1-.3 0-.165.044-.3.1-.3.055 0 .1-.135.1-.3 0-.165.045-.3.1-.3.055 0 .1-.132.1-.294 0-.162.044-.322.1-.356.054-.034.1-.216.1-.406 0-.189.044-.344.1-.344.054 0 .1-.132.1-.294 0-.161.044-.322.1-.356.054-.034.1-.214.1-.4 0-.186.044-.365.1-.4.054-.033.1-.213.1-.4 0-.185.044-.365.1-.4.054-.033.1-.261.1-.505 0-.245.044-.444.1-.444.054 0 .1-.225.1-.5s.044-.5.1-.5c.054 0 .1-.222.1-.494s.044-.522.1-.556c.054-.034.1-.352.1-.706 0-.363.043-.644.1-.644.058 0 .1-.33.1-.791 0-.436.038-.807.084-.825.047-.019.116-.832.153-1.809l.068-1.774H84.649c-15.284 0-15.351 0-15.351.2 0 .11-.045.2-.1.2-.055 0-.1.225-.1.5s-.045.5-.1.5c-.055 0-.1.18-.1.4 0 .22-.045.4-.1.4-.055 0-.1.132-.1.294 0 .161-.045.321-.1.355-.055.034-.1.17-.1.3 0 .131-.045.266-.1.3-.055.034-.1.172-.1.306 0 .135-.045.244-.1.244-.055 0-.1.135-.1.3 0 .165-.045.3-.1.3-.055 0-.1.09-.1.2 0 .11-.045.2-.1.2-.055 0-.1.09-.1.2 0 .11-.045.2-.1.2-.055 0-.1.09-.1.2 0 .11-.045.2-.1.2-.055 0-.1.09-.1.2 0 .11-.045.2-.1.2-.055 0-.1.09-.1.2 0 .11-.045.2-.1.2-.055 0-.1.08-.1.178 0 .098-.09.243-.2.322-.11.08-.2.224-.2.322s-.037.178-.083.178c-.046 0-.147.124-.224.275a1.87 1.87 0 01-.317.437c-.097.088-.176.212-.176.274 0 .063-.18.299-.4.526-.22.226-.4.452-.4.5 0 .117-2.27 2.387-2.386 2.387-.05 0-.275.18-.501.4-.227.22-.464.4-.526.4s-.186.08-.274.176c-.09.097-.286.24-.437.317-.151.078-.275.178-.275.224 0 .046-.08.083-.178.083-.098 0-.243.09-.322.2-.08.11-.224.2-.322.2s-.178.045-.178.1c0 .055-.09.1-.2.1-.11 0-.2.045-.2.1 0 .055-.09.1-.2.1-.11 0-.2.045-.2.1 0 .055-.09.1-.2.1-.11 0-.2.045-.2.1 0 .055-.09.1-.2.1-.11 0-.2.045-.2.1 0 .055-.09.1-.2.1-.11 0-.2.045-.2.1 0 .055-.135.1-.3.1-.165 0-.3.045-.3.1 0 .055-.11.1-.244.1s-.272.045-.306.1c-.034.055-.169.1-.3.1-.13 0-.266.045-.3.1-.034.055-.194.1-.356.1-.161 0-.294.045-.294.1 0 .055-.18.1-.4.1-.22 0-.4.045-.4.1 0 .055-.224.1-.5.1-.274 0-.5.045-.5.1 0 .057-.3.1-.7.1-.4 0-.7.043-.7.1 0 .063-.7.1-1.899.1-1.2 0-1.9-.037-1.9-.1 0-.057-.3-.1-.7-.1-.4 0-.7-.043-.7-.1 0-.055-.225-.1-.5-.1s-.5-.045-.5-.1c0-.055-.18-.1-.4-.1-.22 0-.4-.045-.4-.1 0-.055-.132-.1-.293-.1-.162 0-.322-.045-.356-.1-.034-.055-.17-.1-.3-.1-.131 0-.266-.045-.3-.1-.034-.055-.172-.1-.306-.1s-.244-.045-.244-.1c0-.055-.135-.1-.3-.1-.165 0-.3-.045-.3-.1 0-.055-.09-.1-.2-.1-.11 0-.2-.045-.2-.1 0-.055-.09-.1-.2-.1-.11 0-.2-.045-.2-.1 0-.055-.09-.1-.2-.1-.11 0-.2-.045-.2-.1 0-.055-.09-.1-.2-.1-.11 0-.2-.045-.2-.1 0-.055-.09-.1-.2-.1-.11 0-.2-.045-.2-.1 0-.055-.08-.1-.178-.1-.098 0-.243-.09-.322-.2-.08-.11-.224-.2-.322-.2s-.178-.037-.178-.083c0-.045-.123-.146-.275-.224a1.873 1.873 0 01-.437-.317c-.089-.097-.212-.176-.274-.176-.062 0-.299-.18-.526-.4-.226-.22-.452-.4-.5-.4-.117 0-2.387-2.27-2.387-2.386 0-.05-.18-.275-.4-.501-.22-.227-.4-.463-.4-.526 0-.062-.08-.186-.176-.275a1.866 1.866 0 01-.317-.436c-.077-.151-.178-.275-.224-.275-.046 0-.083-.08-.083-.178 0-.098-.09-.243-.2-.322-.11-.08-.2-.224-.2-.322s-.045-.178-.1-.178c-.055 0-.1-.09-.1-.2 0-.11-.045-.2-.1-.2-.055 0-.1-.09-.1-.2 0-.11-.045-.2-.1-.2-.055 0-.1-.09-.1-.2 0-.11-.045-.2-.1-.2-.055 0-.1-.09-.1-.2 0-.11-.045-.2-.1-.2-.055 0-.1-.09-.1-.2 0-.11-.045-.2-.1-.2-.055 0-.1-.135-.1-.3 0-.165-.045-.3-.1-.3-.055 0-.1-.11-.1-.244s-.045-.272-.1-.306c-.055-.034-.1-.169-.1-.3 0-.13-.045-.266-.1-.3-.055-.034-.1-.194-.1-.355 0-.162-.045-.294-.1-.294-.055 0-.1-.18-.1-.4 0-.22-.045-.4-.1-.4-.055 0-.1-.225-.1-.5s-.045-.5-.1-.5c-.055 0-.1-.09-.1-.2 0-.2-.067-.2-15.35-.2H0l.068 1.774"/><path fill="#FC6C6C" d="M45.725.029c-.697.022-1.224.08-1.224.136 0 .054-.35.097-.8.097-.467 0-.8.042-.8.1 0 .056-.281.1-.644.1-.354 0-.672.045-.706.1-.034.055-.284.1-.556.1-.272 0-.494.045-.494.1 0 .055-.225.1-.5.1s-.5.045-.5.1c0 .055-.2.1-.444.1s-.472.045-.506.1c-.034.055-.191.1-.35.1-.158 0-.316.045-.35.1-.034.055-.236.1-.45.1-.213 0-.416.045-.45.1-.034.055-.194.1-.355.1-.162 0-.294.045-.294.1 0 .055-.133.1-.294.1-.162 0-.322.045-.356.1-.034.055-.217.1-.406.1-.19 0-.344.045-.344.1 0 .055-.11.1-.244.1-.135 0-.272.045-.306.1-.034.055-.17.1-.3.1-.131 0-.266.045-.3.1-.034.055-.194.1-.356.1-.162 0-.294.045-.294.1 0 .055-.087.1-.194.1-.107 0-.222.045-.256.1-.034.055-.172.1-.306.1s-.244.045-.244.1c0 .055-.135.1-.3.1-.165 0-.3.045-.3.1 0 .055-.09.1-.2.1-.11 0-.2.045-.2.1 0 .055-.135.1-.3.1-.165 0-.3.045-.3.1 0 .055-.09.1-.2.1-.11 0-.2.044-.2.1 0 .054-.09.1-.2.1-.11 0-.2.044-.2.1 0 .054-.087.1-.194.1-.106 0-.222.044-.256.1-.034.054-.171.1-.306.1-.134 0-.244.033-.244.074-.001.09-.486.325-.67.325-.071 0-.13.045-.13.1 0 .055-.09.1-.2.1-.11 0-.2.045-.2.1 0 .055-.09.1-.2.1-.11 0-.2.045-.2.1 0 .055-.09.1-.2.1-.11 0-.2.045-.2.1 0 .055-.09.1-.2.1-.11 0-.2.045-.2.1 0 .055-.08.1-.177.1-.098 0-.243.09-.322.2-.08.11-.224.2-.322.2s-.178.045-.178.1c0 .055-.09.1-.2.1-.11 0-.2.045-.2.1 0 .055-.08.1-.178.1-.098 0-.243.09-.322.2-.08.11-.224.2-.322.2s-.178.045-.178.1c0 .055-.08.1-.178.1-.098 0-.243.09-.322.2-.08.11-.214.2-.3.2s-.22.09-.3.2c-.08.11-.214.2-.3.2s-.22.09-.3.2c-.079.11-.214.2-.3.2-.085 0-.22.09-.3.2-.079.11-.19.2-.247.2-.057 0-.26.135-.453.3-.192.165-.396.3-.453.3-.056 0-.167.09-.247.2-.079.11-.206.2-.281.2-.076 0-.264.135-.419.3-.154.165-.321.3-.372.3-.05 0-.333.225-.627.5-.295.275-.572.5-.617.5-.045 0-.4.315-.79.7-.39.385-.75.7-.802.7-.121 0-3.39 3.27-3.39 3.39 0 .052-.316.412-.7.802-.386.39-.7.745-.7.79 0 .045-.226.322-.5.617-.276.294-.5.576-.5.627 0 .051-.135.218-.3.373-.165.154-.3.342-.3.418 0 .075-.09.202-.2.282-.11.079-.2.19-.2.247 0 .056-.136.26-.3.453-.165.192-.3.396-.3.453 0 .056-.09.167-.2.247-.11.079-.2.214-.2.3 0 .085-.09.22-.2.3-.11.079-.2.214-.2.3 0 .085-.09.22-.2.3-.11.079-.2.214-.2.3 0 .085-.09.22-.2.3-.11.079-.2.224-.2.321 0 .098-.045.178-.1.178-.055 0-.1.08-.1.178 0 .098-.09.243-.2.322-.11.08-.2.224-.2.322s-.045.178-.1.178c-.055 0-.1.09-.1.2 0 .11-.045.2-.1.2-.055 0-.1.08-.1.178 0 .098-.09.243-.2.322-.11.08-.2.224-.2.322s-.045.178-.1.178c-.055 0-.1.09-.1.2 0 .11-.045.2-.1.2-.055 0-.1.09-.1.2 0 .11-.045.2-.1.2-.055 0-.1.09-.1.2 0 .11-.045.2-.1.2-.055 0-.1.09-.1.2 0 .11-.045.2-.1.2-.055 0-.1.058-.1.13 0 .184-.235.668-.325.669-.041 0-.075.11-.075.245 0 .134-.045.272-.1.306-.055.034-.1.149-.1.256 0 .106-.045.194-.1.194-.055 0-.1.09-.1.2 0 .11-.045.2-.1.2-.055 0-.1.09-.1.2 0 .11-.045.2-.1.2-.055 0-.1.134-.1.3 0 .164-.045.3-.1.3-.055 0-.1.09-.1.2 0 .11-.045.2-.1.2-.055 0-.1.134-.1.3 0 .164-.045.3-.1.3-.055 0-.1.109-.1.243 0 .135-.045.272-.1.306-.055.034-.1.15-.1.256 0 .107-.045.194-.1.194-.055 0-.1.132-.1.294 0 .162-.045.322-.1.356-.055.034-.1.17-.1.3 0 .131-.045.266-.1.3-.055.034-.1.172-.1.306s-.045.244-.1.244c-.054 0-.1.155-.1.344 0 .19-.044.372-.1.406-.054.034-.1.194-.1.356 0 .162-.044.294-.1.294-.054 0-.1.132-.1.294 0 .162-.044.322-.1.356-.054.034-.1.236-.1.45 0 .213-.044.416-.1.45-.054.034-.1.191-.1.35 0 .158-.044.316-.1.35-.054.033-.1.261-.1.505 0 .245-.044.444-.1.444-.054 0-.1.225-.1.5s-.044.5-.1.5c-.054 0-.1.222-.1.494s-.044.522-.1.556c-.054.034-.1.352-.1.706 0 .363-.043.644-.1.644-.058 0-.1.33-.1.792 0 .435-.038.806-.084.825-.047.018-.115.832-.15 1.808l-.066 1.774h15.349c15.282 0 15.348 0 15.348-.2 0-.11.045-.2.1-.2.055 0 .1-.224.1-.5 0-.274.045-.5.1-.5.055 0 .1-.18.1-.4 0-.22.045-.4.1-.4.055 0 .1-.154.1-.343 0-.19.045-.372.1-.406.055-.034.1-.17.1-.3 0-.131.045-.266.1-.3.055-.034.1-.15.1-.256 0-.107.045-.194.1-.194.055 0 .1-.135.1-.3 0-.165.045-.3.1-.3.055 0 .1-.09.1-.2 0-.11.045-.2.1-.2.055 0 .1-.063.1-.14 0-.167.417-.995.525-1.043.041-.019.075-.12.075-.225 0-.106.045-.192.1-.192.055 0 .1-.08.1-.178 0-.098.09-.243.2-.322.11-.079.2-.224.2-.322s.045-.178.1-.178c.055 0 .1-.06.1-.135 0-.074.135-.276.3-.449.165-.173.3-.36.3-.415 0-.055.18-.291.4-.525.22-.233.4-.459.4-.501 0-.1 2.274-2.374 2.374-2.374.042 0 .268-.18.501-.4.234-.22.47-.4.525-.4.056 0 .242-.135.415-.3.173-.165.375-.3.449-.3.075 0 .135-.045.135-.1 0-.055.08-.1.178-.1.098 0 .243-.09.322-.2.08-.11.224-.2.322-.2s.178-.045.178-.1c0-.055.086-.1.192-.1.105 0 .206-.034.225-.075.048-.108.876-.525 1.042-.525.078 0 .14-.045.14-.1 0-.055.09-.1.2-.1.11 0 .2-.045.2-.1 0-.055.136-.1.3-.1.166 0 .3-.045.3-.1 0-.055.088-.1.195-.1.106 0 .222-.045.256-.1.034-.055.169-.1.3-.1.13 0 .266-.045.3-.1.034-.055.216-.1.406-.1.189 0 .344-.045.344-.1 0-.055.18-.1.4-.1.22 0 .4-.045.4-.1 0-.055.224-.1.5-.1.274 0 .5-.045.5-.1 0-.057.3-.1.7-.1.4 0 .7-.042.7-.1 0-.063.7-.1 1.899-.1 1.2 0 1.9.037 1.9.1 0 .058.3.1.7.1.4 0 .7.043.7.1 0 .055.225.1.5.1s.5.045.5.1c0 .055.18.1.4.1.22 0 .4.045.4.1 0 .055.154.1.343.1.19 0 .372.045.406.1.034.055.17.1.3.1.131 0 .266.045.3.1.034.055.15.1.256.1.107 0 .194.045.194.1 0 .055.135.1.3.1.165 0 .3.045.3.1 0 .055.09.1.2.1.11 0 .2.045.2.1 0 .055.063.1.14.1.167 0 .995.417 1.043.525.019.041.12.075.225.075.106 0 .192.045.192.1 0 .055.08.1.178.1.098 0 .243.09.322.2.08.11.224.2.322.2s.178.045.178.1c0 .055.06.1.135.1.074 0 .276.135.449.3.173.165.36.3.415.3.055 0 .291.18.525.4.233.22.46.4.501.4.1 0 2.374 2.274 2.374 2.374 0 .042.18.268.4.501.22.234.4.47.4.525 0 .056.135.242.3.415.165.173.3.375.3.45 0 .074.045.134.1.134.055 0 .1.08.1.178 0 .098.09.243.2.322.11.08.2.224.2.322s.045.178.1.178c.055 0 .1.086.1.192 0 .105.034.206.075.225.108.048.525.876.525 1.042 0 .078.045.141.1.141.055 0 .1.09.1.2 0 .11.045.2.1.2.055 0 .1.135.1.3 0 .165.045.3.1.3.055 0 .1.087.1.194 0 .107.045.222.1.256.055.034.1.169.1.3 0 .13.045.266.1.3.055.034.1.217.1.406 0 .189.045.344.1.344.055 0 .1.18.1.4 0 .22.045.4.1.4.055 0 .1.225.1.5s.045.5.1.5c.055 0 .1.09.1.2 0 .199.067.2 15.348.2h15.349l-.066-1.775c-.035-.976-.103-1.79-.15-1.808-.046-.019-.085-.39-.085-.825 0-.462-.041-.792-.1-.792-.056 0-.1-.281-.1-.644 0-.354-.045-.672-.1-.706-.055-.034-.1-.284-.1-.556 0-.272-.045-.494-.1-.494-.055 0-.1-.225-.1-.5s-.045-.5-.1-.5c-.055 0-.1-.2-.1-.444s-.045-.471-.1-.505c-.055-.035-.1-.192-.1-.35 0-.159-.045-.316-.1-.35-.055-.034-.1-.237-.1-.45 0-.214-.045-.416-.1-.45-.055-.034-.1-.194-.1-.356 0-.162-.045-.294-.1-.294-.055 0-.1-.133-.1-.294 0-.162-.044-.322-.1-.356-.055-.034-.1-.217-.1-.406 0-.19-.044-.344-.1-.344-.054 0-.1-.11-.1-.244s-.044-.272-.1-.306c-.054-.034-.1-.169-.1-.3 0-.13-.044-.266-.1-.3-.054-.034-.1-.194-.1-.356 0-.162-.044-.294-.1-.294-.054 0-.1-.087-.1-.194 0-.107-.044-.222-.1-.256-.054-.034-.1-.171-.1-.306 0-.134-.044-.244-.1-.244-.054 0-.1-.135-.1-.3 0-.165-.044-.3-.1-.3-.054 0-.1-.09-.1-.2 0-.11-.044-.2-.1-.2-.054 0-.1-.135-.1-.3 0-.165-.044-.3-.1-.3-.054 0-.1-.09-.1-.2 0-.11-.044-.2-.1-.2-.054 0-.1-.09-.1-.2 0-.11-.044-.2-.1-.2-.054 0-.1-.087-.1-.193 0-.107-.044-.222-.1-.256-.054-.034-.1-.172-.1-.306 0-.135-.033-.245-.074-.245-.09-.001-.325-.485-.325-.67 0-.07-.045-.13-.1-.13-.055 0-.1-.09-.1-.2 0-.11-.045-.2-.1-.2-.055 0-.1-.09-.1-.2 0-.11-.045-.2-.1-.2-.055 0-.1-.09-.1-.2 0-.11-.045-.2-.1-.2-.055 0-.1-.09-.1-.2 0-.11-.045-.2-.1-.2-.055 0-.1-.08-.1-.177 0-.098-.09-.243-.2-.322-.11-.08-.2-.224-.2-.322s-.045-.178-.1-.178c-.055 0-.1-.09-.1-.2 0-.11-.045-.2-.1-.2-.055 0-.1-.08-.1-.178 0-.098-.09-.243-.2-.322-.11-.08-.2-.224-.2-.322s-.045-.178-.1-.178c-.055 0-.1-.08-.1-.178 0-.098-.09-.242-.2-.322-.11-.079-.2-.214-.2-.3 0-.085-.09-.22-.2-.3-.11-.079-.2-.214-.2-.3 0-.085-.09-.22-.2-.3-.11-.079-.2-.214-.2-.3 0-.085-.09-.22-.2-.3-.11-.079-.2-.19-.2-.247 0-.056-.135-.26-.3-.452-.164-.193-.3-.397-.3-.453 0-.057-.09-.168-.2-.247-.11-.08-.2-.207-.2-.282 0-.076-.135-.264-.3-.418-.165-.155-.3-.322-.3-.373 0-.05-.225-.333-.5-.627-.275-.295-.5-.572-.5-.617 0-.045-.314-.4-.7-.79-.384-.39-.7-.75-.7-.801 0-.122-3.269-3.391-3.39-3.391-.052 0-.412-.316-.802-.7-.39-.385-.745-.7-.79-.7-.045 0-.322-.225-.617-.5-.294-.275-.576-.5-.627-.5-.05 0-.218-.135-.373-.3-.154-.165-.342-.3-.417-.3-.076 0-.203-.09-.282-.2-.08-.11-.19-.2-.247-.2-.057 0-.26-.135-.453-.3-.193-.165-.396-.3-.453-.3-.057 0-.168-.09-.247-.2-.08-.11-.215-.2-.3-.2-.086 0-.221-.09-.3-.2-.08-.11-.214-.2-.3-.2s-.22-.09-.3-.2c-.08-.11-.214-.2-.3-.2s-.22-.09-.3-.2c-.08-.11-.224-.2-.322-.2s-.178-.045-.178-.1c0-.055-.08-.1-.178-.1-.098 0-.243-.09-.322-.2-.08-.11-.224-.2-.322-.2s-.178-.045-.178-.1c0-.055-.09-.1-.2-.1-.11 0-.2-.045-.2-.1 0-.055-.08-.1-.178-.1-.098 0-.243-.09-.322-.2-.079-.11-.224-.2-.322-.2s-.178-.045-.178-.1c0-.055-.09-.1-.2-.1-.11 0-.2-.045-.2-.1 0-.055-.09-.1-.2-.1-.11 0-.2-.045-.2-.1 0-.055-.09-.1-.2-.1-.11 0-.2-.045-.2-.1 0-.055-.09-.1-.2-.1-.11 0-.2-.045-.2-.1 0-.055-.058-.1-.13-.1-.183 0-.668-.235-.669-.325 0-.04-.11-.075-.244-.075-.135 0-.272-.045-.306-.1-.034-.055-.15-.1-.256-.1-.107 0-.194-.045-.194-.1 0-.055-.09-.1-.2-.1-.11 0-.2-.045-.2-.1 0-.054-.09-.1-.2-.1-.11 0-.2-.044-.2-.1 0-.054-.135-.1-.3-.1-.165 0-.3-.044-.3-.1 0-.054-.09-.1-.2-.1-.11 0-.2-.044-.2-.1 0-.054-.135-.1-.3-.1-.165 0-.3-.044-.3-.1 0-.054-.11-.1-.244-.1s-.272-.044-.306-.1c-.034-.054-.15-.1-.256-.1-.107 0-.194-.044-.194-.1 0-.054-.132-.1-.294-.1-.162 0-.322-.044-.356-.1-.034-.054-.169-.1-.3-.1-.13 0-.266-.044-.3-.1-.034-.054-.171-.1-.306-.1-.134 0-.244-.044-.244-.1 0-.054-.154-.1-.344-.1-.189 0-.372-.044-.406-.1-.034-.054-.194-.1-.356-.1-.161 0-.294-.044-.294-.1 0-.054-.132-.1-.294-.1-.161 0-.322-.044-.356-.1-.034-.054-.236-.1-.45-.1-.213 0-.415-.044-.45-.1-.033-.054-.19-.1-.35-.1-.158 0-.315-.044-.35-.1-.033-.054-.261-.1-.505-.1s-.444-.044-.444-.1c0-.054-.225-.1-.5-.1s-.5-.044-.5-.1c0-.054-.222-.1-.494-.1s-.522-.044-.556-.1c-.034-.054-.352-.1-.706-.1-.363 0-.644-.043-.644-.1 0-.057-.33-.1-.791-.1-.472 0-.806-.042-.828-.106-.036-.11-7.301-.205-9.755-.126"/></g></svg>